<?xml version="1.0" standalone="no"?>
<!DOCTYPE svg PUBLIC "-//W3C//DTD SVG 20010904//EN"
 "http://www.w3.org/TR/2001/REC-SVG-20010904/DTD/svg10.dtd">
<svg version="1.0" xmlns="http://www.w3.org/2000/svg"
 width="1000.000000pt" height="1000.000000pt" viewBox="0 0 1000.000000 1000.000000"
 preserveAspectRatio="xMidYMid meet">
<metadata>
Created by potrace 1.11, written by Peter Selinger 2001-2013
</metadata>
<g transform="translate(0.000000,1000.000000) scale(0.100000,-0.100000)"
fill="#000000" stroke="none">
<path d="M4559 9996 c-2 -2 -44 -6 -94 -10 -49 -3 -106 -8 -125 -10 -19 -3
-62 -8 -95 -11 -33 -3 -67 -8 -75 -10 -8 -2 -37 -6 -65 -10 -224 -28 -657
-149 -910 -255 -55 -23 -109 -44 -120 -47 -40 -12 -403 -201 -495 -258 -187
-116 -461 -314 -567 -409 -175 -159 -355 -339 -458 -460 -150 -174 -396 -523
-448 -636 -4 -8 -17 -31 -29 -50 -20 -34 -140 -270 -171 -340 -76 -167 -170
-443 -221 -648 -48 -193 -55 -226 -51 -230 2 -2 16 18 31 45 16 26 32 53 36
58 5 6 46 65 93 132 46 67 91 130 99 140 179 223 409 471 566 608 496 436
1047 738 1660 910 288 81 582 131 876 150 191 12 553 7 679 -10 17 -3 82 -11
145 -20 635 -83 1233 -309 1775 -670 77 -51 149 -100 160 -109 11 -9 56 -44
99 -77 78 -61 107 -84 130 -104 339 -297 609 -602 820 -927 31 -48 60 -89 64
-92 7 -4 35 21 277 249 72 67 146 137 165 155 19 18 95 89 169 159 195 184
225 211 232 203 8 -8 92 -230 108 -287 7 -22 16 -49 21 -60 24 -57 84 -296
125 -505 2 -8 4 -23 4 -33 1 -10 5 -17 10 -15 8 3 87 75 344 318 38 36 83 79
101 95 18 17 71 66 117 110 119 112 333 312 402 376 l58 54 -78 74 c-43 41
-110 104 -148 140 -39 36 -141 134 -229 216 -87 83 -162 151 -165 153 -4 1
-25 -14 -47 -34 -53 -50 -291 -273 -324 -304 -15 -14 -85 -80 -156 -147 -71
-66 -132 -124 -135 -128 -4 -3 -50 81 -102 187 -103 208 -148 291 -159 296 -5
2 -8 8 -8 13 0 11 -138 228 -162 253 -10 11 -18 23 -18 27 0 3 -12 22 -27 42
-16 19 -37 48 -48 63 -11 15 -31 41 -45 58 -14 17 -32 39 -40 50 -366 462
-897 883 -1444 1147 -153 73 -386 171 -386 162 0 -3 -6 -1 -12 4 -11 9 -187
70 -221 77 -7 2 -19 5 -27 8 -58 20 -295 80 -365 93 -119 22 -197 35 -240 40
-27 4 -57 8 -65 10 -8 2 -51 7 -95 11 -44 3 -89 8 -100 11 -23 5 -591 13 -596
9z"/>
<path d="M7844 6617 c-15 -16 -373 -353 -460 -434 -16 -14 -94 -88 -174 -164
-80 -76 -156 -147 -169 -158 -13 -11 -84 -78 -158 -148 -75 -70 -147 -139
-162 -152 -14 -13 -87 -81 -161 -151 -74 -71 -151 -142 -170 -160 -19 -18 -67
-62 -105 -99 -39 -36 -140 -131 -225 -211 -85 -80 -171 -161 -191 -180 -20
-19 -63 -60 -95 -90 -32 -30 -122 -114 -199 -186 -77 -73 -156 -146 -175 -164
-19 -17 -64 -60 -100 -94 -36 -34 -137 -129 -225 -211 -88 -82 -194 -182 -235
-221 -41 -39 -88 -84 -105 -99 -26 -24 -244 -228 -330 -310 -133 -126 -269
-251 -281 -258 -8 -5 -19 -7 -23 -5 -8 3 -174 156 -302 278 -20 19 -67 64
-105 99 -112 105 -343 321 -424 397 -41 40 -91 86 -110 104 -19 18 -98 91
-175 164 -177 167 -177 167 -319 300 -149 139 -172 161 -326 306 -69 65 -141
132 -160 150 -19 18 -95 89 -169 159 -73 69 -139 129 -147 134 -8 5 -25 -4
-47 -25 -19 -18 -94 -89 -167 -158 -73 -69 -152 -142 -174 -163 -23 -22 -87
-82 -144 -134 l-102 -95 22 -20 c13 -11 50 -45 83 -76 91 -87 233 -221 405
-382 85 -80 188 -177 230 -217 41 -39 91 -86 110 -103 41 -38 280 -262 325
-305 17 -16 65 -62 106 -100 41 -39 144 -136 229 -216 85 -80 168 -158 183
-171 36 -33 269 -252 367 -345 133 -126 185 -173 190 -173 3 0 39 32 80 71
254 240 339 320 370 349 19 18 65 61 103 96 37 35 73 64 80 64 6 0 39 -26 72
-57 33 -31 123 -115 199 -187 77 -72 173 -162 215 -201 41 -38 90 -85 108
-104 l34 -35 42 40 c23 22 78 74 122 115 85 81 197 186 255 239 19 18 100 94
180 169 168 159 259 244 315 296 92 87 335 315 405 382 41 39 85 80 96 90 12
10 81 75 155 144 74 70 153 144 175 165 23 22 95 89 160 150 66 62 139 131
164 154 52 48 107 100 325 305 88 83 193 182 234 220 75 70 176 165 326 306
44 41 111 104 149 140 38 35 90 84 116 109 152 145 294 275 298 273 11 -4 86
-245 127 -408 41 -161 89 -410 100 -520 3 -27 7 -63 10 -80 5 -32 12 -118 20
-255 10 -152 5 -450 -9 -605 -3 -33 -8 -89 -12 -125 l-5 -65 17 30 c113 202
263 549 337 781 31 98 96 347 112 429 25 135 52 325 60 430 3 39 8 86 11 105
6 43 6 468 0 530 -2 25 -7 81 -11 125 -4 44 -8 94 -10 110 -22 167 -27 196
-35 193 -6 -3 -77 -68 -315 -293 -44 -42 -291 -273 -345 -323 -24 -23 -47 -38
-51 -34 -3 4 -27 61 -53 127 -94 234 -312 656 -340 655 -6 -1 -16 -6 -22 -13z"/>
<path d="M614 6577 c-6 -12 -28 -51 -49 -87 -220 -378 -409 -896 -490 -1345
-23 -123 -38 -228 -51 -350 -3 -33 -8 -78 -11 -100 -11 -95 -10 -635 3 -755
14 -140 22 -206 28 -235 2 -11 6 -41 10 -66 17 -115 31 -185 71 -354 32 -134
139 -479 155 -500 4 -5 13 -28 20 -50 34 -106 165 -384 262 -555 360 -634 866
-1163 1475 -1544 392 -245 886 -447 1308 -537 33 -7 65 -14 70 -15 239 -53
488 -77 805 -78 248 -1 478 7 512 18 7 3 38 7 68 11 134 14 369 59 525 100
620 164 1198 468 1695 894 213 183 487 478 646 696 16 22 31 42 34 45 3 3 49
70 101 150 248 376 422 754 555 1205 9 33 18 65 20 70 1 6 11 46 22 90 33 128
95 464 88 472 -2 2 -38 -54 -81 -124 -172 -277 -352 -502 -594 -743 -80 -80
-177 -173 -216 -206 -369 -319 -789 -572 -1245 -752 -97 -38 -352 -124 -410
-137 -8 -2 -80 -19 -160 -38 -124 -30 -369 -73 -518 -91 -223 -27 -711 -28
-932 -1 -86 11 -126 16 -145 20 -11 2 -42 7 -68 10 -43 5 -85 13 -167 30 -14
2 -50 10 -80 16 -30 6 -111 26 -180 45 -1533 412 -2701 1624 -3039 3154 -22
101 -56 306 -67 405 -3 33 -8 74 -10 90 -6 53 -17 277 -17 365 0 92 12 366 18
402 2 13 6 50 10 83 3 33 8 71 10 85 2 14 7 43 10 65 3 22 10 66 16 99 11 64
9 76 -7 43z"/>
</g>
</svg>
