
<svg width="921px" height="900px" viewBox="0 0 921 900" version="1.1" 
    xmlns="http://www.w3.org/2000/svg" 
    xmlns:xlink="http://www.w3.org/1999/xlink">
    <defs>
        <linearGradient x1="99.4580925%" y1="49.4580925%" x2="0.541907514%" y2="49.4580925%" id="linearGradient-1">
            <stop stop-color="#14C9FF" offset="0%"></stop>
            <stop stop-color="#00407F" offset="100%"></stop>
        </linearGradient>
    </defs>
    <g id="Page-1" stroke="none" stroke-width="1" fill="none" fill-rule="evenodd">
        <path d="M826.714412,206.537996 L846.407237,186.829905 C849.530273,183.704552 854.595592,183.702675 857.720944,186.825711 C857.722343,186.827108 857.723741,186.828506 857.725138,186.829905 L857.720944,186.834096 L917.38167,246.547467 C920.503069,249.671181 920.503069,254.733267 917.38167,257.856981 L873.359203,301.913574 C889.539179,348.278889 898.334438,398.111561 898.334438,450 C898.334438,697.975853 697.459282,899 449.667219,899 C201.875156,899 1,697.975853 1,450 C1,202.024147 201.875156,1 449.667219,1 C607.789529,1 746.80711,82.8577393 826.714412,206.537996 Z M167.64211,444.377824 C169.230274,444.641494 170.754228,445.385641 171.979846,446.61035 C171.981244,446.611748 171.982642,446.613146 171.98404,446.614545 L379.401023,654.198142 L699.35503,333.996106 C655.846419,237.171194 558.61686,169.751678 445.6523,169.751678 C293.304153,169.751678 169.575153,292.3757 167.64211,444.377824 Z M723.660891,451.727932 L449.395712,726.205721 C599.981022,724.217165 721.678738,602.426123 723.660891,451.727933 Z M826.714412,206.537996 L699.35503,333.996106 C714.987963,368.785934 723.685454,407.372036 723.685454,447.991051 C723.685454,449.238613 723.677249,450.484257 723.660891,451.727933 L873.359203,301.913574 C861.557407,268.094359 845.826679,236.1199 826.714412,206.537996 Z M167.64211,444.377824 C165.180421,443.969129 162.564465,444.71481 160.666138,446.614545 L101.005687,506.327635 L101.009884,506.331829 C97.8884854,509.455543 97.8884854,514.517629 101.009884,517.641343 L373.588309,790.438725 C373.589707,790.440123 373.591105,790.441521 373.592503,790.442919 C376.717855,793.565955 381.783175,793.564077 384.906211,790.438725 L414.777376,760.537 C415.305869,760.213278 415.804898,759.822559 416.26227,759.364848 L449.395712,726.205721 C448.149868,726.222173 446.902047,726.230425 445.6523,726.230425 C292.098829,726.230425 167.619146,601.658414 167.619146,447.991051 C167.619146,446.784834 167.626816,445.58041 167.64211,444.377824 Z" id="Combined-Shape" stroke="#979797" fill="url(#linearGradient-1)"></path>
    </g>
</svg>